<svg width="22" height="22" viewBox="0 0 22 22" fill="none" xmlns="http://www.w3.org/2000/svg">
<g id="gg:dice-3" clip-path="url(#clip0_2782_467)">
<g id="Group">
<path id="Vector" d="M9.16671 11C9.16671 10.5138 9.35986 10.0475 9.70368 9.70365C10.0475 9.35983 10.5138 9.16668 11 9.16668C11.4863 9.16668 11.9526 9.35983 12.2964 9.70365C12.6402 10.0475 12.8334 10.5138 12.8334 11C12.8334 11.4862 12.6402 11.9526 12.2964 12.2964C11.9526 12.6402 11.4863 12.8333 11 12.8333C10.5138 12.8333 10.0475 12.6402 9.70368 12.2964C9.35986 11.9526 9.16671 11.4862 9.16671 11ZM15.533 13.651C15.0467 13.651 14.5804 13.8442 14.2366 14.188C13.8928 14.5318 13.6996 14.9981 13.6996 15.4843C13.6996 15.9706 13.8928 16.4369 14.2366 16.7807C14.5804 17.1245 15.0467 17.3177 15.533 17.3177C16.0192 17.3177 16.4855 17.1245 16.8293 16.7807C17.1731 16.4369 17.3663 15.9706 17.3663 15.4843C17.3663 14.9981 17.1731 14.5318 16.8293 14.188C16.4855 13.8442 16.0192 13.651 15.533 13.651ZM4.63379 6.46709C4.63379 5.98086 4.82694 5.51455 5.17076 5.17073C5.51458 4.82691 5.98089 4.63376 6.46712 4.63376C6.95335 4.63376 7.41967 4.82691 7.76348 5.17073C8.1073 5.51455 8.30046 5.98086 8.30046 6.46709C8.30046 6.95332 8.1073 7.41964 7.76348 7.76345C7.41967 8.10727 6.95335 8.30043 6.46712 8.30043C5.98089 8.30043 5.51458 8.10727 5.17076 7.76345C4.82694 7.41964 4.63379 6.95332 4.63379 6.46709Z" fill="white"/>
<path id="Vector_2" fill-rule="evenodd" clip-rule="evenodd" d="M0.916504 3.66667C0.916504 2.93733 1.20624 2.23785 1.72196 1.72213C2.23769 1.2064 2.93716 0.916672 3.6665 0.916672H18.3332C19.0625 0.916672 19.762 1.2064 20.2777 1.72213C20.7934 2.23785 21.0832 2.93733 21.0832 3.66667V18.3333C21.0832 19.0627 20.7934 19.7622 20.2777 20.2779C19.762 20.7936 19.0625 21.0833 18.3332 21.0833H3.6665C2.93716 21.0833 2.23769 20.7936 1.72196 20.2779C1.20624 19.7622 0.916504 19.0627 0.916504 18.3333V3.66667ZM3.6665 2.75001H18.3332C18.5763 2.75001 18.8094 2.84658 18.9814 3.01849C19.1533 3.1904 19.2498 3.42356 19.2498 3.66667V18.3333C19.2498 18.5765 19.1533 18.8096 18.9814 18.9815C18.8094 19.1534 18.5763 19.25 18.3332 19.25H3.6665C3.42339 19.25 3.19023 19.1534 3.01832 18.9815C2.84641 18.8096 2.74984 18.5765 2.74984 18.3333V3.66667C2.74984 3.42356 2.84641 3.1904 3.01832 3.01849C3.19023 2.84658 3.42339 2.75001 3.6665 2.75001Z" fill="white"/>
</g>
</g>
<defs>
<clipPath id="clip0_2782_467">
<rect width="22" height="22" fill="white"/>
</clipPath>
</defs>
</svg>
